<svg xmlns="http://www.w3.org/2000/svg" viewBox="0 0 400 400" width="400" height="400">
  <path d="M40 400c8-92 62-140 160-140s152 48 160 140z" fill="#6f7a64"/>
  <path d="M158 256l42 34 42-34-6 36-36 16-36-16z" fill="#5c6653"/>
  <circle cx="200" cy="326" r="5" fill="#4a5243"/><circle cx="200" cy="362" r="5" fill="#4a5243"/>
  <rect x="180" y="212" width="40" height="46" fill="#dcb48a"/>
  <ellipse cx="200" cy="142" rx="68" ry="78" fill="#1f1c1a"/>
  <ellipse cx="200" cy="170" rx="64" ry="76" fill="#ecc9a0"/>
  <path d="M170 162h18M212 162h18" stroke="#2a201b" stroke-width="5" stroke-linecap="round"/>
  <path d="M168 150c7-3 15-3 22 0M210 150c7-3 15-3 22 0" stroke="#1f1c1a" stroke-width="4" stroke-linecap="round"/>
  <path d="M196 172l-8 28h14" fill="none" stroke="#b98d63" stroke-width="4" stroke-linejoin="round"/>
  <path d="M180 220c12 8 28 8 40 0" fill="none" stroke="#7a3b2a" stroke-width="5" stroke-linecap="round"/>
  <circle cx="214" cy="234" r="4" fill="#4a3226"/>
</svg>
